# xmcd CD database file
#
# Track frame offsets:
#	150
#	15420
#	32996
#	48266
#
# Disc length: 874 seconds
#
# Revision: 0
# Processed by: cddbd v1.5.1PL2 Copyright (c) Steve Scherf et al.
# Submitted via: CDex 1.51
#
DISCID=26036804
DTITLE=yozuca＊ - キラメク
DYEAR=0006
DGENRE=Anime
TTITLE0=キラメク
TTITLE1=春の日
TTITLE2=キラメク (off vocal)
TTITLE3=春の日 (off vocal)
EXTD=YEAR: 06/04/26
EXTT0=
EXTT1=
EXTT2=
EXTT3=
PLAYORDER=
